<svg style="display:none">

  <!-- logo-svg -->
  <symbol id="logo-svg" width="170" height="24" viewBox="0 0 170 24" fill="none"
    xmlns="http://www.w3.org/2000/svg">
    <path
      d="M153.521 20.6067V3.39355H161.808C163.415 3.39355 164.8 3.65585 165.964 4.18044C167.144 4.70503 168.054 5.45913 168.694 6.44274C169.333 7.40995 169.653 8.55749 169.653 9.88536C169.653 11.2132 169.333 12.3608 168.694 13.328C168.054 14.2952 167.144 15.0493 165.964 15.5903C164.8 16.1149 163.415 16.3772 161.808 16.3772H156.743L159.325 13.8936V20.6067H153.521ZM159.325 14.5329L156.743 11.9018H161.44C162.243 11.9018 162.833 11.7214 163.21 11.3608C163.603 11.0001 163.8 10.5083 163.8 9.88536C163.8 9.26241 163.603 8.7706 163.21 8.40995C162.833 8.04929 162.243 7.86897 161.44 7.86897H156.743L159.325 5.23782V14.5329Z"
      fill="#5C89CE" />
    <path
      d="M135.486 20.6067V3.39355H143.773C145.38 3.39355 146.765 3.65585 147.929 4.18044C149.109 4.70503 150.019 5.45913 150.658 6.44274C151.298 7.40995 151.617 8.55749 151.617 9.88536C151.617 11.2132 151.298 12.3608 150.658 13.328C150.019 14.2952 149.109 15.0493 147.929 15.5903C146.765 16.1149 145.38 16.3772 143.773 16.3772H138.708L141.29 13.8936V20.6067H135.486ZM141.29 14.5329L138.708 11.9018H143.404C144.208 11.9018 144.798 11.7214 145.175 11.3608C145.568 11.0001 145.765 10.5083 145.765 9.88536C145.765 9.26241 145.568 8.7706 145.175 8.40995C144.798 8.04929 144.208 7.86897 143.404 7.86897H138.708L141.29 5.23782V14.5329Z"
      fill="#5C89CE" />
    <path
      d="M113.804 20.6067L121.329 3.39355H127.034L134.558 20.6067H128.558L123.001 6.14765H125.263L119.706 20.6067H113.804ZM118.28 17.6067L119.755 13.4263H127.673L129.148 17.6067H118.28Z"
      fill="#5C89CE" />
    <path
      d="M89.9766 20.6067V3.39355H98.2634C99.87 3.39355 101.255 3.65585 102.419 4.18044C103.6 4.70503 104.509 5.45913 105.149 6.44274C105.788 7.40995 106.108 8.55749 106.108 9.88536C106.108 11.2132 105.788 12.3608 105.149 13.328C104.509 14.2788 103.6 15.0083 102.419 15.5165C101.255 16.0247 99.87 16.2788 98.2634 16.2788H93.1979L95.7798 13.8936V20.6067H89.9766ZM100.28 20.6067L96.0503 14.3362H102.198L106.477 20.6067H100.28ZM95.7798 14.5329L93.1979 11.9018H97.8946C98.6979 11.9018 99.288 11.7214 99.6651 11.3608C100.059 11.0001 100.255 10.5083 100.255 9.88536C100.255 9.26241 100.059 8.7706 99.6651 8.40995C99.288 8.04929 98.6979 7.86897 97.8946 7.86897H93.1979L95.7798 5.23782V14.5329Z"
      fill="#202020" />
    <path
      d="M78.7421 9.787H86.4143V13.9673H78.7421V9.787ZM79.1356 16.2296H87.7421V20.6067H73.4307V3.39355H87.4225V7.7706H79.1356V16.2296Z"
      fill="#202020" />
    <path
      d="M62.1953 9.787H69.8674V13.9673H62.1953V9.787ZM62.5887 16.2296H71.1953V20.6067H56.8838V3.39355H70.8756V7.7706H62.5887V16.2296Z"
      fill="#202020" />
    <path
      d="M38.5596 20.6067V3.39355H46.8465C48.453 3.39355 49.8383 3.65585 51.0022 4.18044C52.1825 4.70503 53.0924 5.45913 53.7317 6.44274C54.371 7.40995 54.6907 8.55749 54.6907 9.88536C54.6907 11.2132 54.371 12.3608 53.7317 13.328C53.0924 14.2788 52.1825 15.0083 51.0022 15.5165C49.8383 16.0247 48.453 16.2788 46.8465 16.2788H41.7809L44.3629 13.8936V20.6067H38.5596ZM48.8629 20.6067L44.6333 14.3362H50.7809L55.0596 20.6067H48.8629ZM44.3629 14.5329L41.7809 11.9018H46.4776C47.2809 11.9018 47.871 11.7214 48.2481 11.3608C48.6415 11.0001 48.8383 10.5083 48.8383 9.88536C48.8383 9.26241 48.6415 8.7706 48.2481 8.40995C47.871 8.04929 47.2809 7.86897 46.4776 7.86897H41.7809L44.3629 5.23782V14.5329Z"
      fill="#202020" />
    <path
      d="M16.8799 20.6067L24.4045 3.39355H30.1094L37.634 20.6067H31.634L26.0766 6.14765H28.3389L22.7815 20.6067H16.8799ZM21.3553 17.6067L22.8307 13.4263H30.7487L32.2241 17.6067H21.3553Z"
      fill="#202020" />
    <path
      d="M9.59017 21C8.21312 21 6.93443 20.7869 5.7541 20.3607C4.59016 19.918 3.57377 19.2951 2.70492 18.4918C1.85246 17.6885 1.18852 16.7377 0.713115 15.6393C0.237705 14.541 0 13.3279 0 12C0 10.6721 0.237705 9.45902 0.713115 8.36066C1.18852 7.26229 1.85246 6.31148 2.70492 5.5082C3.57377 4.70492 4.59016 4.09016 5.7541 3.66393C6.93443 3.22131 8.21312 3 9.59017 3C11.2787 3 12.7705 3.29508 14.0656 3.88525C15.3771 4.47541 16.459 5.32787 17.3115 6.44262L13.6475 9.71311C13.1393 9.07377 12.5738 8.58197 11.9508 8.23771C11.3443 7.87705 10.6557 7.69672 9.88525 7.69672C9.27869 7.69672 8.72951 7.79508 8.23771 7.9918C7.7459 8.18852 7.31967 8.47541 6.95902 8.85246C6.61475 9.22951 6.34426 9.68852 6.14754 10.2295C5.95082 10.7541 5.85246 11.3443 5.85246 12C5.85246 12.6557 5.95082 13.2541 6.14754 13.7951C6.34426 14.3197 6.61475 14.7705 6.95902 15.1475C7.31967 15.5246 7.7459 15.8115 8.23771 16.0082C8.72951 16.2049 9.27869 16.3033 9.88525 16.3033C10.6557 16.3033 11.3443 16.1311 11.9508 15.7869C12.5738 15.4262 13.1393 14.9262 13.6475 14.2869L17.3115 17.5574C16.459 18.6557 15.3771 19.5082 14.0656 20.1148C12.7705 20.7049 11.2787 21 9.59017 21Z"
      fill="#202020" />
  </symbol>

  <!-- location-svg -->
  <symbol id="location-svg" width="16" height="16" viewBox="0 0 16 16" fill="none"
    xmlns="http://www.w3.org/2000/svg">
    <path
      d="M8.87557e-05 5.98934C-0.0021161 6.12448 0.0368048 6.25708 0.111691 6.36959C0.186577 6.48209 0.293891 6.56918 0.419404 6.6193L6.8198 9.1798L9.38035 15.5807C9.42982 15.7045 9.51527 15.8106 9.62566 15.8854C9.73606 15.9601 9.86634 16 9.99966 16H10.0103C10.1453 15.9979 10.2765 15.9548 10.3865 15.8765C10.4965 15.7981 10.5801 15.6883 10.6263 15.5614L15.9594 0.89569C16.0031 0.776382 16.0117 0.647083 15.9843 0.523022C15.957 0.39896 15.8947 0.285302 15.8049 0.195433C15.7151 0.105564 15.6015 0.0432268 15.4775 0.0157628C15.3534 -0.0117012 15.2241 -0.00314809 15.1048 0.0404146L0.438737 5.37339C0.311786 5.41967 0.201878 5.5034 0.123552 5.61351C0.0452263 5.72362 0.00217346 5.85491 8.87557e-05 5.99001V5.98934Z"
      fill="#5C89CE" />
  </symbol>

  <!-- briefcase -->
  <symbol id="briefcase-svg" width="16" height="16" viewBox="0 0 16 16" fill="none"
    xmlns="http://www.w3.org/2000/svg">
    <path
      d="M5.75 1.5H10.25C10.3875 1.5 10.5 1.6125 10.5 1.75V3H5.5V1.75C5.5 1.6125 5.6125 1.5 5.75 1.5ZM4 1.75V3H2C0.896875 3 0 3.89687 0 5V8H6H10H16V5C16 3.89687 15.1031 3 14 3H12V1.75C12 0.784375 11.2156 0 10.25 0H5.75C4.78438 0 4 0.784375 4 1.75ZM16 9H10V10C10 10.5531 9.55313 11 9 11H7C6.44688 11 6 10.5531 6 10V9H0V13C0 14.1031 0.896875 15 2 15H14C15.1031 15 16 14.1031 16 13V9Z"
      fill="#5C89CE" />
  </symbol>

  <!-- filter-solid -->
  <symbol id="filter-solid-svg" width="16" height="16" viewBox="0 0 16 16" fill="none"
    xmlns="http://www.w3.org/2000/svg">
    <path
      d="M0.121712 1.71562C0.327962 1.27813 0.765462 1 1.24984 1H14.7498C15.2342 1 15.6717 1.27813 15.878 1.71562C16.0842 2.15312 16.0217 2.66875 15.7155 3.04375L9.99984 10.0281V14C9.99984 14.3781 9.78734 14.725 9.44671 14.8937C9.10609 15.0625 8.70296 15.0281 8.39984 14.8L6.39984 13.3C6.14671 13.1125 5.99984 12.8156 5.99984 12.5V10.0281L0.281087 3.04062C-0.0220383 2.66875 -0.0876633 2.15 0.121712 1.71562Z"
      fill="#5C89CE" />
  </symbol>

  <!-- chevron-down-svg -->
  <symbol id="chevron-down-svg" width="12" height="12" viewBox="0 0 12 12" fill="none"
    xmlns="http://www.w3.org/2000/svg">
    <path
      d="M9.52949 6.52988C9.82246 6.23691 9.82246 5.76113 9.52949 5.46816L5.02949 0.968163C4.73652 0.675195 4.26074 0.675195 3.96777 0.968163C3.6748 1.26113 3.6748 1.73691 3.96777 2.02988L7.93809 6.0002L3.97012 9.97051C3.67715 10.2635 3.67715 10.7393 3.97012 11.0322C4.26309 11.3252 4.73887 11.3252 5.03184 11.0322L9.53184 6.53223L9.52949 6.52988Z"
      fill="#747474" />
  </symbol>

  <!-- experience-svg -->
  <symbol id="experience-svg" width="12" height="12" viewBox="0 0 12 12" fill="none"
    xmlns="http://www.w3.org/2000/svg">
    <path
      d="M11.9683 4.30801C11.9306 4.19694 11.8612 4.09935 11.7686 4.02728C11.6761 3.95521 11.5644 3.91182 11.4475 3.90246L8.02686 3.6307L6.54665 0.354534C6.49951 0.249015 6.42284 0.159392 6.32588 0.0964823C6.22892 0.0335723 6.11583 6.3519e-05 6.00025 9.02152e-08C5.88466 -6.33385e-05 5.77153 0.0333213 5.6745 0.0961249C5.57748 0.158928 5.5007 0.248467 5.45345 0.353934L3.97324 3.6307L0.552619 3.90246C0.437692 3.91157 0.32782 3.95358 0.23615 4.02349C0.14448 4.09339 0.074892 4.18822 0.0357119 4.29663C-0.00346825 4.40504 -0.0105816 4.52244 0.0152228 4.63479C0.0410272 4.74714 0.0986568 4.84967 0.181217 4.93013L2.70903 7.394L1.81503 11.2647C1.78788 11.3819 1.79658 11.5045 1.84 11.6166C1.88342 11.7288 1.95955 11.8253 2.05851 11.8937C2.15747 11.962 2.2747 11.9991 2.39498 12C2.51526 12.0009 2.63304 11.9656 2.73303 11.8988L6.00005 9.72109L9.26707 11.8988C9.36927 11.9667 9.4898 12.0016 9.61245 11.9989C9.7351 11.9962 9.85398 11.956 9.95311 11.8838C10.0522 11.8115 10.1269 11.7106 10.1669 11.5947C10.207 11.4788 10.2106 11.3533 10.1773 11.2353L9.07987 7.3958L11.8015 4.94692C11.9797 4.78615 12.0451 4.53538 11.9683 4.30801Z"
      fill="#5C89CE" />
  </symbol>

  <!-- eye-slash-solid-svg -->
  <symbol id="eye-slash-solid-svg" width="16" height="16" viewBox="0 0 16 16" fill="none"
    xmlns="http://www.w3.org/2000/svg">
    <path d="M1.00098 3.3999L15.001 12.3999" stroke="#C5C5C5" stroke-width="2"
      stroke-linecap="round" />
    <path fill-rule="evenodd" clip-rule="evenodd"
      d="M2.88385 4.02844C4.16948 2.90662 5.88656 2 8.00028 2C10.2447 2 12.0419 3.02222 13.3503 4.23889C14.6503 5.44444 15.5197 6.88889 15.9336 7.88056C16.0253 8.1 16.0253 8.34444 15.9336 8.56389C15.6225 9.30922 15.0541 10.3087 14.239 11.2723L11.7287 9.67094C11.9065 9.21336 12.0003 8.72263 12.0003 8.22222C12.0003 7.16136 11.5789 6.14394 10.8287 5.3938C10.0786 4.64365 9.06115 4.22222 8.00028 4.22222C6.93942 4.22222 5.922 4.64365 5.17185 5.3938C5.15269 5.41296 5.13375 5.43229 5.11502 5.4518L2.88385 4.02844ZM0.667107 6.70514C0.412848 7.13254 0.213327 7.53417 0.0697266 7.88056C-0.0219401 8.1 -0.0219401 8.34444 0.0697266 8.56389C0.480838 9.55556 1.35028 11 2.65028 12.2056C3.95862 13.4222 5.75584 14.4444 8.00028 14.4444C9.29937 14.4444 10.4486 14.102 11.44 13.5776L9.08184 12.0732C8.73285 12.1713 8.36919 12.2222 8.00028 12.2222C6.93942 12.2222 5.922 11.8008 5.17185 11.0506C4.57485 10.4536 4.18605 9.68736 4.05219 8.86462L0.667107 6.70514ZM6.48871 10.419C6.53796 10.4528 6.58831 10.4849 6.63967 10.5153L6.48871 10.419ZM10.5697 8.93154C10.6928 8.48806 10.7028 8.00697 10.5753 7.53056C10.2669 6.37778 9.2475 5.60278 8.11417 5.55556C7.95306 5.55 7.85862 5.725 7.90862 5.88056C7.96695 6.05833 8.00028 6.24722 8.00028 6.44444C8.00028 6.70991 7.94185 6.96195 7.83716 7.18836L10.5697 8.93154Z"
      fill="#C5C5C5" />
  </symbol>


</svg>